<?xml version="1.0" encoding="utf-8"?>
<!-- Generator: Adobe Illustrator 16.0.0, SVG Export Plug-In . SVG Version: 6.00 Build 0)  -->
<!DOCTYPE svg PUBLIC "-//W3C//DTD SVG 1.1//EN" "http://www.w3.org/Graphics/SVG/1.1/DTD/svg11.dtd">
<svg version="1.1" id="Layer_1" xmlns="http://www.w3.org/2000/svg" xmlns:xlink="http://www.w3.org/1999/xlink" x="0px" y="0px"
	 width="3539.292px" height="1043.791px" viewBox="0 0 3539.292 1043.791" enable-background="new 0 0 3539.292 1043.791"
	 xml:space="preserve">
<path fill="#2D308C" d="M624.688,445.7c-9.922,25.602-19.825,51.204-29.76,76.796c-16.514,42.518-33.467,84.881-49.294,127.654
	c-3.735,10.103-6.179,21.878-4.932,32.372c2.623,21.971,19.011,27.133,36.12,29.438c31.742,4.256,53.619-12.092,73.357-34.19
	c32.688-36.588,66.007-72.607,99.038-108.882c15.785-17.334,31.515-34.707,47.282-52.049c2-2.201,4.098-4.315,7.368-5.817
	c-0.413,1.554-0.677,3.166-1.253,4.657c-17.432,45.367-35.035,90.675-52.209,136.138c-2.821,7.467-4.78,15.563-5.364,23.501
	c-1.03,13.992,6.19,24.513,19.792,27.958c11.402,2.895,23.324,4.979,35.059,5.174c36.615,0.656,73.242,0.524,109.875,0.094
	c12.521-0.158,25.031-2.069,37.549-3.186c0.733,0.864,1.462,1.729,2.196,2.594c-2.36,1.338-5.165,2.241-7.019,4.09
	C851.595,802.813,760.771,893.67,669.93,984.512c-30.087,30.08-85.018,33.484-116.847,5.096
	c-27.859-24.852-53.689-52.012-80.129-78.431c-106.993-106.885-213.909-213.836-320.785-320.84
	c-35.213-35.26-36.964-90.902-2.541-126.6c40.597-42.095,82.508-82.922,123.967-124.185c1.703-1.699,4.611-3.101,6.965-3.105
	c49.742-0.155,99.488-0.092,149.231-0.047c0.519,0,1.04,0.265,2.836,0.754c-43.136,123.379-86.239,246.665-129.71,371.005
	c3.545,0.21,6.357,0.564,9.165,0.498c22.862-0.498,45.771-0.367,68.578-1.821c21.295-1.361,37.087-13.192,50.188-29.527
	c19.577-24.42,39.635-48.441,59.555-72.579c33.08-40.08,66.19-80.139,99.338-120.17c11.069-13.366,22.273-26.63,33.415-39.935
	C623.663,444.983,624.176,445.343,624.688,445.7z"/>
<path fill="#71A642" d="M695.377,542.424c6.507-16.82,13.094-33.609,19.5-50.472c15.775-41.537,32.261-82.834,46.881-124.777
	c8.389-24.082,0.583-43.328-18.019-53.742c-11.101-6.209-22.991-5.223-35.001-4.477c-34.743,2.165-57.962,23.189-79.346,47.601
	c-34.313,39.194-68.828,78.229-103.245,117.33c-10.627,12.064-21.229,24.141-31.867,36.192c-2.457,2.775-5.021,5.453-9.045,7.342
	c4.874-13.952,9.765-27.894,14.608-41.861c18.701-53.961,37.519-107.882,55.929-161.945c2.407-7.077,3.065-14.833,3.924-22.345
	c2.547-22.242-13.962-33.307-32.115-33.499c-53.285-0.565-106.584-0.345-159.874-0.435c-3.119-0.002-6.241,0-11.493,0
	c3.266-3.567,4.777-5.357,6.431-7.007c59.508-59.534,119.004-119.073,178.555-178.563C581.2,31.8,637.205,32.873,676.77,73.198
	c45.891,46.785,92.586,92.786,138.918,139.139c46.326,46.359,92.625,92.75,138.964,139.102
	c36.3,36.303,72.325,72.886,109.047,108.764c35.927,35.1,37.122,93.225,1.725,128.904c-21.33,21.506-42.771,42.896-64.355,64.137
	c-2.263,2.227-5.87,4.349-8.861,4.363c-43.732,0.289-87.46,0.194-131.188,0.184c-0.799,0-1.598-0.251-3.532-0.564
	c3.613-10.021,7.001-19.851,10.68-29.557c22.012-58.01,44.042-116.013,66.171-173.973c5.142-13.461,8.208-27.344,4.932-41.451
	c-4.995-21.508-30.604-37.07-52.482-32.988c-5.848,1.087-12.138,1-17.478,3.229c-8.103,3.385-16.98,6.867-23.066,12.822
	c-49.527,48.487-98.479,97.563-147.626,146.455c-0.548,0.549-1.255,0.955-1.89,1.429C696.275,542.94,695.82,542.678,695.377,542.424
	z"/>
<polygon fill="#71A642" points="1429.474,450.801 1355.436,652.525 1279.814,445.249 1220.401,652.525 1156.104,652.525 
	1274.569,257.035 1355.726,487.009 1436.754,257.204 1554.784,652.525 1493.255,652.525 "/>
<path fill="#71A642" d="M1894.164,652.811V255.988c0,0,39.639-0.377,59.4,0.049c40.42,0.933,81.205-0.685,121.182,4.142
	c77.217,9.332,152.125,82.01,158.574,170.189c12.67,111.849-66.242,196.933-142.039,216.306
	c-12.693,3.225-25.971,5.671-39.018,5.853C2000.208,653.186,1894.164,652.811,1894.164,652.811z M1952.449,596.194
	c0,0,74.775,0.283,110.092-5.801c92.723-15.954,135.912-133.168,89.172-214.708c-44.104-76.96-199.264-58.19-199.264-58.19V596.194z
	"/>
<polygon fill="#71A642" points="1658.186,594.563 1852.708,594.563 1852.708,652.525 1599.995,652.525 1599.995,256.97 
	1852.804,256.97 1852.804,313.393 1658.152,313.393 1658.152,397.676 1852.701,397.676 1852.701,455.291 1658.186,455.291 "/>
<path fill="#71A642" d="M2686.439,538.539c15.32,11.467,29.715,22.26,43.936,32.896c-18.154,51.342-110.93,90.68-189.938,81.169
	c-79.197-9.512-157.518-86.344-165.785-164.776c-11.688-110.571,39.365-184.112,125.539-219.69
	c82.23-33.968,182.572-3.13,232.059,69.015c-15.424,11.583-30.965,23.27-46.51,34.955c-61.379-75.783-157.426-70.4-212.064-16.281
	c-54.289,53.744-55.205,142.068-0.994,197.003C2524.664,605.521,2616.777,616.835,2686.439,538.539z"/>
<path fill="#71A642" d="M2773.117,652.201l142.754-395.231l143.35,395.206h-68.775l-23.232-52.85l-103.963-0.365l-20.082,53.951
	L2773.117,652.201z M2953.603,536.391l-37.732-104.084l-36.609,104.084H2953.603z"/>
<polygon fill="#71A642" points="3156.755,594.497 3297.708,594.497 3297.708,651.736 3099.751,651.736 3099.751,257.357 
	3156.755,257.357 "/>
<rect x="2276.869" y="257.267" fill="#71A642" width="56.127" height="394.728"/>
<path fill="#2D308C" d="M3264.572,896.345c6.82,3.06,15.998,6.424,22.564,9.241c-16.877,39.149-62.982,60.268-106.92,48.427
	c-49.395-13.317-70.037-59.504-66.244-96.955c4.49-44.646,41.047-77.8,80.543-80.881c57.418-4.452,97.703,34.979,99.92,94.196
	c-51.158,0-102.273,0-153.186,0c-2.328,23.785,10.869,45.1,33.504,55.493C3201.349,938.046,3241.187,936.847,3264.572,896.345z
	 M3265.226,848.709c-6.896-30.101-32.289-51.451-61.236-49.909c-26.27,1.37-56.514,15.061-60.02,49.909
	C3184.333,848.709,3224.695,848.709,3265.226,848.709z"/>
<polygon fill="#2D308C" points="2808.525,950.465 2808.525,719.677 2835.494,719.677 2835.494,928.881 2922.857,928.881 
	2922.857,950.465 "/>
<path fill="#2D308C" d="M3055.644,950.675c-10.066,0-17.094,0-25.467,0c0-49.102,0.209-149.797,0.209-149.797l-21.342,0.015v-20.82
	l21.436-0.01c0,0,0-41.18,8.879-52.214c10.688-21.411,43.164-27.024,56.908-12.62c-0.092,5.363,0,12.577,0,20.379
	c-50.25-19.363-40.723,44.456-40.723,44.456l35.186-0.017v21.261h-35.086C3055.644,801.308,3055.644,900.501,3055.644,950.675z"/>
<rect x="2951.833" y="780.912" fill="#2D308C" width="22.129" height="169.696"/>
<path fill="#2D308C" d="M2982.439,730.144c-0.338,9.242-7.363,14.184-19.775,13.874c-12.279-0.298-17.393-7.429-17.393-18.324
	c0-12.008,6.139-18.736,19.104-18.466C2977.38,707.485,2982.75,714.112,2982.439,730.144z"/>
</svg>
