<?xml version="1.0" encoding="utf-8"?>
<!-- Generator: Adobe Illustrator 16.0.0, SVG Export Plug-In . SVG Version: 6.00 Build 0)  -->
<!DOCTYPE svg PUBLIC "-//W3C//DTD SVG 1.1//EN" "http://www.w3.org/Graphics/SVG/1.1/DTD/svg11.dtd">
<svg version="1.1" id="Layer_1" xmlns="http://www.w3.org/2000/svg" xmlns:xlink="http://www.w3.org/1999/xlink" x="0px" y="0px"
	 width="3539.292px" height="1043.791px" viewBox="0 0 3539.292 1043.791" enable-background="new 0 0 3539.292 1043.791"
	 xml:space="preserve">
<path fill-rule="evenodd" clip-rule="evenodd" fill="#2D308C" d="M688.392,443.167c-9.922,25.602-19.826,51.204-29.76,76.796
	c-16.514,42.518-33.467,84.881-49.294,127.654c-3.736,10.103-6.179,21.878-4.932,32.372c2.623,21.971,19.011,27.133,36.12,29.438
	c31.742,4.256,53.619-12.092,73.358-34.191c32.687-36.587,66.007-72.607,99.038-108.881c15.785-17.334,31.514-34.707,47.282-52.049
	c2-2.201,4.098-4.316,7.368-5.818c-0.413,1.554-0.676,3.166-1.253,4.658c-17.431,45.367-35.035,90.674-52.209,136.137
	c-2.821,7.467-4.78,15.564-5.364,23.501c-1.03,13.993,6.191,24.513,19.792,27.958c11.402,2.895,23.324,4.979,35.059,5.174
	c36.615,0.656,73.242,0.525,109.875,0.094c12.521-0.158,25.031-2.069,37.548-3.186c0.734,0.865,1.462,1.73,2.197,2.594
	c-2.361,1.338-5.165,2.241-7.019,4.09C915.3,800.277,824.477,891.136,733.635,981.978c-30.087,30.08-85.018,33.484-116.847,5.095
	c-27.859-24.851-53.689-52.011-80.129-78.43C429.664,801.759,322.748,694.808,215.872,587.804
	c-35.213-35.26-36.964-90.902-2.541-126.6c40.597-42.094,82.508-82.922,123.967-124.184c1.703-1.699,4.611-3.101,6.965-3.105
	c49.742-0.155,99.488-0.092,149.231-0.047c0.519,0,1.04,0.265,2.836,0.754c-43.136,123.379-86.239,246.664-129.71,371.005
	c3.545,0.21,6.357,0.565,9.165,0.498c22.862-0.498,45.771-0.367,68.578-1.821c21.295-1.361,37.087-13.192,50.189-29.527
	c19.577-24.42,39.634-48.442,59.554-72.58c33.08-40.08,66.191-80.138,99.338-120.169c11.07-13.367,22.274-26.63,33.415-39.935
	C687.366,442.45,687.879,442.81,688.392,443.167z"/>
<path fill-rule="evenodd" clip-rule="evenodd" fill="#71A542" d="M759.08,539.891c6.507-16.821,13.094-33.61,19.5-50.472
	c15.775-41.537,32.261-82.834,46.881-124.777c8.389-24.082,0.583-43.328-18.019-53.742c-11.1-6.209-22.991-5.223-35.001-4.477
	c-34.743,2.165-57.962,23.189-79.345,47.601c-34.313,39.194-68.829,78.229-103.246,117.33
	c-10.627,12.064-21.229,24.14-31.867,36.192c-2.457,2.775-5.02,5.453-9.045,7.342c4.874-13.952,9.765-27.894,14.609-41.861
	c18.701-53.961,37.518-107.883,55.928-161.946c2.408-7.077,3.066-14.833,3.924-22.345c2.547-22.242-13.962-33.307-32.115-33.499
	c-53.285-0.565-106.584-0.345-159.874-0.435c-3.119-0.002-6.241,0-11.493,0c3.265-3.567,4.777-5.357,6.43-7.007
	c59.508-59.534,119.004-119.073,178.555-178.563c40.002-39.965,96.007-38.892,135.571,1.434
	c45.89,46.785,92.585,92.786,138.917,139.139c46.327,46.359,92.625,92.75,138.964,139.102
	c36.3,36.303,72.326,72.886,109.047,108.764c35.927,35.1,37.122,93.225,1.725,128.904c-21.33,21.506-42.771,42.896-64.356,64.137
	c-2.262,2.227-5.87,4.349-8.861,4.363c-43.732,0.289-87.46,0.195-131.187,0.184c-0.799,0-1.598-0.251-3.533-0.564
	c3.614-10.021,7.001-19.851,10.68-29.557c22.012-58.01,44.042-116.013,66.171-173.973c5.142-13.461,8.208-27.344,4.932-41.451
	c-4.996-21.508-30.605-37.07-52.483-32.988c-5.847,1.087-12.137,1-17.477,3.229c-8.103,3.385-16.981,6.867-23.067,12.822
	c-49.527,48.487-98.479,97.563-147.626,146.455c-0.548,0.548-1.254,0.955-1.889,1.428
	C759.979,540.407,759.523,540.145,759.08,539.891z"/>
<polygon fill-rule="evenodd" clip-rule="evenodd" fill="#71A542" points="1493.177,448.268 1419.138,649.992 1343.519,442.716 
	1284.104,649.992 1219.806,649.992 1338.272,254.502 1419.429,484.476 1500.457,254.67 1618.487,649.992 1556.958,649.992 "/>
<path fill-rule="evenodd" clip-rule="evenodd" fill="#71A542" d="M1957.867,650.277V253.455c0,0,39.639-0.377,59.4,0.049
	c40.42,0.933,81.205-0.685,121.182,4.142c77.217,9.332,152.125,82.01,158.576,170.189
	c12.668,111.848-66.244,196.933-142.039,216.306c-12.695,3.224-25.973,5.671-39.02,5.852
	C2063.912,650.652,1957.867,650.277,1957.867,650.277z M2016.152,593.661c0,0,74.777,0.284,110.092-5.8
	c92.723-15.955,135.912-133.168,89.172-214.709c-44.102-76.96-199.264-58.19-199.264-58.19V593.661z"/>
<polygon fill-rule="evenodd" clip-rule="evenodd" fill="#71A542" points="1721.889,592.029 1916.412,592.029 1916.412,649.992 
	1663.698,649.992 1663.698,254.437 1916.507,254.437 1916.507,310.86 1721.855,310.86 1721.855,395.143 1916.404,395.143 
	1916.404,452.757 1721.889,452.757 "/>
<path fill-rule="evenodd" clip-rule="evenodd" fill="#71A542" d="M2750.144,536.007c15.32,11.465,29.713,22.26,43.934,32.895
	c-18.154,51.341-110.93,90.679-189.938,81.168c-79.197-9.511-157.516-86.343-165.785-164.776
	c-11.686-110.571,39.365-184.112,125.539-219.69c82.23-33.968,182.572-3.13,232.059,69.015
	c-15.424,11.583-30.965,23.27-46.51,34.955c-61.379-75.783-157.426-70.4-212.064-16.281
	c-54.289,53.744-55.205,142.068-0.994,197.003C2588.367,602.989,2680.48,614.302,2750.144,536.007z"/>
<path fill-rule="evenodd" clip-rule="evenodd" fill="#71A542" d="M2836.82,649.668l142.754-395.231l143.35,395.206h-68.775
	l-23.234-52.85l-103.961-0.365l-20.084,53.951L2836.82,649.668z M3017.308,533.858l-37.734-104.085l-36.609,104.085H3017.308z"/>
<polygon fill-rule="evenodd" clip-rule="evenodd" fill="#71A542" points="3220.458,591.964 3361.412,591.964 3361.412,649.203 
	3163.455,649.203 3163.455,254.824 3220.458,254.824 "/>
<rect x="2340.572" y="254.733" fill-rule="evenodd" clip-rule="evenodd" fill="#71A542" width="56.127" height="394.728"/>
<path fill-rule="evenodd" clip-rule="evenodd" fill="#2D308C" d="M3328.275,893.812c6.82,3.059,15.998,6.424,22.564,9.241
	c-16.877,39.149-62.982,60.267-106.918,48.427c-49.396-13.318-70.039-59.504-66.246-96.955c4.492-44.646,41.049-77.8,80.543-80.881
	c57.418-4.452,97.705,34.979,99.922,94.196c-51.158,0-102.275,0-153.186,0c-2.33,23.785,10.869,45.1,33.504,55.493
	C3265.052,935.513,3304.89,934.313,3328.275,893.812z M3328.929,846.176c-6.896-30.101-32.289-51.451-61.238-49.909
	c-26.268,1.37-56.512,15.06-60.018,49.909C3248.037,846.176,3288.398,846.176,3328.929,846.176z"/>
<polygon fill-rule="evenodd" clip-rule="evenodd" fill="#2D308C" points="2872.228,947.932 2872.228,717.144 2899.197,717.144 
	2899.197,926.348 2986.56,926.348 2986.56,947.932 "/>
<path fill-rule="evenodd" clip-rule="evenodd" fill="#2D308C" d="M3119.347,948.142c-10.066,0-17.094,0-25.467,0
	c0-49.102,0.209-149.797,0.209-149.797l-21.342,0.015v-20.821l21.436-0.01c0,0,0-41.179,8.879-52.213
	c10.686-21.412,43.164-27.025,56.908-12.621c-0.092,5.364,0,12.578,0,20.379c-50.25-19.363-40.723,44.456-40.723,44.456
	l35.186-0.016v21.261h-35.086C3119.347,798.774,3119.347,897.968,3119.347,948.142z"/>
<rect x="3015.537" y="778.379" fill-rule="evenodd" clip-rule="evenodd" fill="#2D308C" width="22.129" height="169.696"/>
<path fill-rule="evenodd" clip-rule="evenodd" fill="#2D308C" d="M3046.142,727.61c-0.336,9.242-7.363,14.183-19.775,13.874
	c-12.279-0.298-17.393-7.429-17.393-18.325c0-12.007,6.139-18.736,19.104-18.465C3041.083,704.952,3046.453,711.579,3046.142,727.61
	z"/>
</svg>
